<mxfile host="Electron" modified="2023-05-03T14:25:18.161Z" agent="Mozilla/5.0 (Windows NT 10.0; Win64; x64) AppleWebKit/537.36 (KHTML, like Gecko) draw.io/21.2.1 Chrome/112.0.5615.87 Electron/24.1.2 Safari/537.36" etag="p5Hy7Ai6qD53zZLoz0Zf" version="21.2.1" type="device">
  <diagram name="Page-1" id="MuWw8hlP-7gh3ki9MRSE">
    <mxGraphModel dx="1434" dy="854" grid="1" gridSize="10" guides="1" tooltips="1" connect="1" arrows="1" fold="1" page="1" pageScale="1" pageWidth="827" pageHeight="1169" math="0" shadow="0">
      <root>
        <mxCell id="0" />
        <mxCell id="1" parent="0" />
        <mxCell id="n9vFjWYDE5SBtBu7MkNS-8" value=":Vendor" style="shape=umlLifeline;perimeter=lifelinePerimeter;whiteSpace=wrap;html=1;container=1;collapsible=0;recursiveResize=0;outlineConnect=0;rounded=1;shadow=0;comic=0;labelBackgroundColor=none;strokeWidth=1;fontFamily=Verdana;fontSize=14;align=center;" parent="1" vertex="1">
          <mxGeometry x="379" y="45" width="100" height="1078" as="geometry" />
        </mxCell>
        <mxCell id="n9vFjWYDE5SBtBu7MkNS-1" value="Admin&amp;nbsp;" style="shape=umlActor;verticalLabelPosition=bottom;verticalAlign=top;html=1;points=[[0,0.3333333333333333,0,0,0],[0,1,0,0,0],[0.25,0.1,0,0,0],[0.5,0,0,0,0],[0.5,0.5,0,0,0],[0.55,1,0,0,31],[0.75,0.1,0,0,0],[1,0.3333333333333333,0,0,0],[1,1,0,0,0]];" parent="1" vertex="1">
          <mxGeometry x="110" y="45" width="30" height="60" as="geometry" />
        </mxCell>
        <mxCell id="n9vFjWYDE5SBtBu7MkNS-2" value="" style="rounded=0;orthogonalLoop=1;jettySize=auto;html=1;dashed=1;endArrow=none;endFill=0;" parent="1" source="n9vFjWYDE5SBtBu7MkNS-9" edge="1">
          <mxGeometry relative="1" as="geometry">
            <mxPoint x="124.82" y="115" as="sourcePoint" />
            <mxPoint x="125.82" y="1125" as="targetPoint" />
          </mxGeometry>
        </mxCell>
        <mxCell id="n9vFjWYDE5SBtBu7MkNS-3" value="DATABASE" style="shape=umlLifeline;perimeter=lifelinePerimeter;whiteSpace=wrap;html=1;container=1;collapsible=0;recursiveResize=0;outlineConnect=0;rounded=1;shadow=0;comic=0;labelBackgroundColor=none;strokeWidth=1;fontFamily=Verdana;fontSize=14;align=center;" parent="1" vertex="1">
          <mxGeometry x="682.8199999999999" y="46" width="100" height="1078" as="geometry" />
        </mxCell>
        <mxCell id="n9vFjWYDE5SBtBu7MkNS-4" value="" style="html=1;points=[];perimeter=orthogonalPerimeter;rounded=0;shadow=0;comic=0;labelBackgroundColor=none;strokeWidth=1;fontFamily=Verdana;fontSize=12;align=center;" parent="n9vFjWYDE5SBtBu7MkNS-3" vertex="1">
          <mxGeometry x="-258.82" y="160" width="10" height="82" as="geometry" />
        </mxCell>
        <mxCell id="n9vFjWYDE5SBtBu7MkNS-21" value="" style="html=1;points=[];perimeter=orthogonalPerimeter;rounded=0;shadow=0;comic=0;labelBackgroundColor=none;strokeWidth=1;fontFamily=Verdana;fontSize=12;align=center;" parent="n9vFjWYDE5SBtBu7MkNS-3" vertex="1">
          <mxGeometry x="-257.82" y="535" width="10" height="82" as="geometry" />
        </mxCell>
        <mxCell id="uISs0ZUxdiLHD1mFaJ5K-4" value="" style="html=1;points=[];perimeter=orthogonalPerimeter;rounded=0;shadow=0;comic=0;labelBackgroundColor=none;strokeWidth=1;fontFamily=Verdana;fontSize=12;align=center;" vertex="1" parent="n9vFjWYDE5SBtBu7MkNS-3">
          <mxGeometry x="45" y="170" width="10" height="65" as="geometry" />
        </mxCell>
        <mxCell id="uISs0ZUxdiLHD1mFaJ5K-7" value="" style="html=1;points=[];perimeter=orthogonalPerimeter;rounded=0;shadow=0;comic=0;labelBackgroundColor=none;strokeWidth=1;fontFamily=Verdana;fontSize=12;align=center;" vertex="1" parent="n9vFjWYDE5SBtBu7MkNS-3">
          <mxGeometry x="47" y="543" width="10" height="65" as="geometry" />
        </mxCell>
        <mxCell id="n9vFjWYDE5SBtBu7MkNS-17" value="&lt;font style=&quot;font-size: 12px;&quot;&gt;addVendor()&lt;/font&gt;" style="html=1;verticalAlign=bottom;endArrow=block;edgeStyle=elbowEdgeStyle;elbow=vertical;curved=0;rounded=0;fontSize=13;" parent="1" edge="1">
          <mxGeometry x="0.0006" width="80" relative="1" as="geometry">
            <mxPoint x="130" y="205" as="sourcePoint" />
            <mxPoint x="423.99999999999994" y="206" as="targetPoint" />
            <mxPoint as="offset" />
          </mxGeometry>
        </mxCell>
        <mxCell id="n9vFjWYDE5SBtBu7MkNS-18" value="&lt;font style=&quot;font-size: 12px;&quot;&gt;Vendor Added&lt;/font&gt;" style="html=1;verticalAlign=bottom;endArrow=open;dashed=1;endSize=8;edgeStyle=elbowEdgeStyle;elbow=vertical;curved=0;rounded=0;" parent="1" edge="1">
          <mxGeometry relative="1" as="geometry">
            <mxPoint x="423.49999999999994" y="286.9655172413793" as="sourcePoint" />
            <mxPoint x="130" y="287.03" as="targetPoint" />
          </mxGeometry>
        </mxCell>
        <mxCell id="n9vFjWYDE5SBtBu7MkNS-19" value="&lt;font style=&quot;font-size: 12px;&quot;&gt;getVendor(id)&lt;/font&gt;" style="html=1;verticalAlign=bottom;endArrow=block;edgeStyle=elbowEdgeStyle;elbow=vertical;curved=0;rounded=0;fontSize=13;exitX=1.2;exitY=0.228;exitDx=0;exitDy=0;exitPerimeter=0;" parent="1" edge="1">
          <mxGeometry x="0.0006" width="80" relative="1" as="geometry">
            <mxPoint x="133" y="581.36" as="sourcePoint" />
            <mxPoint x="425.99999999999994" y="581" as="targetPoint" />
            <mxPoint as="offset" />
          </mxGeometry>
        </mxCell>
        <mxCell id="n9vFjWYDE5SBtBu7MkNS-20" value="&lt;font style=&quot;font-size: 12px;&quot;&gt;Getting Vendor&lt;/font&gt;" style="html=1;verticalAlign=bottom;endArrow=open;dashed=1;endSize=8;edgeStyle=elbowEdgeStyle;elbow=vertical;curved=0;rounded=0;entryX=1.2;entryY=0.321;entryDx=0;entryDy=0;entryPerimeter=0;" parent="1" edge="1">
          <mxGeometry relative="1" as="geometry">
            <mxPoint x="429.49999999999994" y="661.9955172413793" as="sourcePoint" />
            <mxPoint x="133" y="662.27" as="targetPoint" />
          </mxGeometry>
        </mxCell>
        <mxCell id="uISs0ZUxdiLHD1mFaJ5K-1" value="" style="rounded=0;orthogonalLoop=1;jettySize=auto;html=1;dashed=1;endArrow=none;endFill=0;exitX=0.55;exitY=1;exitDx=0;exitDy=31;exitPerimeter=0;" edge="1" parent="1" source="n9vFjWYDE5SBtBu7MkNS-1" target="n9vFjWYDE5SBtBu7MkNS-9">
          <mxGeometry relative="1" as="geometry">
            <mxPoint x="126.82" y="136" as="sourcePoint" />
            <mxPoint x="128.82" y="1125" as="targetPoint" />
          </mxGeometry>
        </mxCell>
        <mxCell id="n9vFjWYDE5SBtBu7MkNS-9" value="" style="html=1;points=[[0,0,0,0,0]];perimeter=orthogonalPerimeter;rounded=0;shadow=0;comic=0;labelBackgroundColor=none;strokeWidth=1;fontFamily=Verdana;fontSize=12;align=center;" parent="1" vertex="1">
          <mxGeometry x="120" y="205" width="10" height="870" as="geometry" />
        </mxCell>
        <mxCell id="uISs0ZUxdiLHD1mFaJ5K-2" value="&lt;font style=&quot;font-size: 12px;&quot;&gt;addVendor()&lt;/font&gt;" style="html=1;verticalAlign=bottom;endArrow=block;edgeStyle=elbowEdgeStyle;elbow=vertical;curved=0;rounded=0;fontSize=13;" edge="1" parent="1">
          <mxGeometry x="0.0006" width="80" relative="1" as="geometry">
            <mxPoint x="434" y="215" as="sourcePoint" />
            <mxPoint x="730" y="216" as="targetPoint" />
            <mxPoint as="offset" />
          </mxGeometry>
        </mxCell>
        <mxCell id="uISs0ZUxdiLHD1mFaJ5K-3" value="&lt;font style=&quot;font-size: 12px;&quot;&gt;Vendor Added&lt;/font&gt;" style="html=1;verticalAlign=bottom;endArrow=open;dashed=1;endSize=8;edgeStyle=elbowEdgeStyle;elbow=vertical;curved=0;rounded=0;exitX=0.478;exitY=0.218;exitDx=0;exitDy=0;exitPerimeter=0;" edge="1" parent="1" source="n9vFjWYDE5SBtBu7MkNS-3">
          <mxGeometry relative="1" as="geometry">
            <mxPoint x="726.5" y="279.9955172413793" as="sourcePoint" />
            <mxPoint x="433" y="280.05999999999995" as="targetPoint" />
          </mxGeometry>
        </mxCell>
        <mxCell id="uISs0ZUxdiLHD1mFaJ5K-5" value="&lt;font style=&quot;font-size: 12px;&quot;&gt;getVendor(Id)&lt;/font&gt;" style="html=1;verticalAlign=bottom;endArrow=block;edgeStyle=elbowEdgeStyle;elbow=vertical;curved=0;rounded=0;fontSize=13;" edge="1" parent="1">
          <mxGeometry x="0.0011" width="80" relative="1" as="geometry">
            <mxPoint x="436" y="588" as="sourcePoint" />
            <mxPoint x="732" y="589" as="targetPoint" />
            <mxPoint as="offset" />
          </mxGeometry>
        </mxCell>
        <mxCell id="uISs0ZUxdiLHD1mFaJ5K-6" value="&lt;font style=&quot;font-size: 12px;&quot;&gt;Getting&lt;/font&gt;" style="html=1;verticalAlign=bottom;endArrow=open;dashed=1;endSize=8;edgeStyle=elbowEdgeStyle;elbow=vertical;curved=0;rounded=0;exitX=0.478;exitY=0.218;exitDx=0;exitDy=0;exitPerimeter=0;" edge="1" parent="1">
          <mxGeometry relative="1" as="geometry">
            <mxPoint x="733" y="653" as="sourcePoint" />
            <mxPoint x="435" y="653.06" as="targetPoint" />
          </mxGeometry>
        </mxCell>
        <mxCell id="n9vFjWYDE5SBtBu7MkNS-22" value="loop" style="shape=umlFrame;whiteSpace=wrap;html=1;pointerEvents=0;" parent="1" vertex="1">
          <mxGeometry x="46" y="540" width="745" height="148" as="geometry" />
        </mxCell>
        <mxCell id="uISs0ZUxdiLHD1mFaJ5K-10" value="" style="html=1;points=[];perimeter=orthogonalPerimeter;rounded=0;shadow=0;comic=0;labelBackgroundColor=none;strokeWidth=1;fontFamily=Verdana;fontSize=12;align=center;" vertex="1" parent="1">
          <mxGeometry x="421.99999999999994" y="370" width="10" height="82" as="geometry" />
        </mxCell>
        <mxCell id="uISs0ZUxdiLHD1mFaJ5K-11" value="" style="html=1;points=[];perimeter=orthogonalPerimeter;rounded=0;shadow=0;comic=0;labelBackgroundColor=none;strokeWidth=1;fontFamily=Verdana;fontSize=12;align=center;" vertex="1" parent="1">
          <mxGeometry x="726.8199999999999" y="378" width="10" height="65" as="geometry" />
        </mxCell>
        <mxCell id="uISs0ZUxdiLHD1mFaJ5K-12" value="&lt;font style=&quot;font-size: 12px;&quot;&gt;editVendor(id)&lt;/font&gt;" style="html=1;verticalAlign=bottom;endArrow=block;edgeStyle=elbowEdgeStyle;elbow=vertical;curved=0;rounded=0;fontSize=13;exitX=1.2;exitY=0.228;exitDx=0;exitDy=0;exitPerimeter=0;" edge="1" parent="1">
          <mxGeometry x="0.0006" width="80" relative="1" as="geometry">
            <mxPoint x="130" y="372" as="sourcePoint" />
            <mxPoint x="422.99999999999994" y="372" as="targetPoint" />
            <mxPoint as="offset" />
          </mxGeometry>
        </mxCell>
        <mxCell id="uISs0ZUxdiLHD1mFaJ5K-13" value="&lt;font style=&quot;font-size: 12px;&quot;&gt;Vendor Edited&lt;/font&gt;" style="html=1;verticalAlign=bottom;endArrow=open;dashed=1;endSize=8;edgeStyle=elbowEdgeStyle;elbow=vertical;curved=0;rounded=0;entryX=1.2;entryY=0.321;entryDx=0;entryDy=0;entryPerimeter=0;" edge="1" parent="1">
          <mxGeometry relative="1" as="geometry">
            <mxPoint x="426.49999999999994" y="452.9955172413793" as="sourcePoint" />
            <mxPoint x="130" y="453" as="targetPoint" />
          </mxGeometry>
        </mxCell>
        <mxCell id="uISs0ZUxdiLHD1mFaJ5K-14" value="&lt;font style=&quot;font-size: 12px;&quot;&gt;editVendor()&lt;/font&gt;" style="html=1;verticalAlign=bottom;endArrow=block;edgeStyle=elbowEdgeStyle;elbow=vertical;curved=0;rounded=0;fontSize=13;" edge="1" parent="1">
          <mxGeometry x="0.0006" width="80" relative="1" as="geometry">
            <mxPoint x="433" y="379" as="sourcePoint" />
            <mxPoint x="729" y="380" as="targetPoint" />
            <mxPoint as="offset" />
          </mxGeometry>
        </mxCell>
        <mxCell id="uISs0ZUxdiLHD1mFaJ5K-15" value="&lt;font style=&quot;font-size: 12px;&quot;&gt;Edited&lt;/font&gt;" style="html=1;verticalAlign=bottom;endArrow=open;dashed=1;endSize=8;edgeStyle=elbowEdgeStyle;elbow=vertical;curved=0;rounded=0;exitX=0.478;exitY=0.218;exitDx=0;exitDy=0;exitPerimeter=0;" edge="1" parent="1">
          <mxGeometry relative="1" as="geometry">
            <mxPoint x="730" y="444" as="sourcePoint" />
            <mxPoint x="432" y="444.05999999999995" as="targetPoint" />
          </mxGeometry>
        </mxCell>
        <mxCell id="uISs0ZUxdiLHD1mFaJ5K-16" value="" style="html=1;points=[];perimeter=orthogonalPerimeter;rounded=0;shadow=0;comic=0;labelBackgroundColor=none;strokeWidth=1;fontFamily=Verdana;fontSize=12;align=center;" vertex="1" parent="1">
          <mxGeometry x="423.99999999999994" y="781" width="10" height="82" as="geometry" />
        </mxCell>
        <mxCell id="uISs0ZUxdiLHD1mFaJ5K-17" value="" style="html=1;points=[];perimeter=orthogonalPerimeter;rounded=0;shadow=0;comic=0;labelBackgroundColor=none;strokeWidth=1;fontFamily=Verdana;fontSize=12;align=center;" vertex="1" parent="1">
          <mxGeometry x="728.8199999999999" y="789" width="10" height="65" as="geometry" />
        </mxCell>
        <mxCell id="uISs0ZUxdiLHD1mFaJ5K-18" value="&lt;font style=&quot;font-size: 12px;&quot;&gt;getAllVendor()&lt;/font&gt;" style="html=1;verticalAlign=bottom;endArrow=block;edgeStyle=elbowEdgeStyle;elbow=vertical;curved=0;rounded=0;fontSize=13;exitX=1.2;exitY=0.228;exitDx=0;exitDy=0;exitPerimeter=0;" edge="1" parent="1">
          <mxGeometry x="0.0006" width="80" relative="1" as="geometry">
            <mxPoint x="132" y="783" as="sourcePoint" />
            <mxPoint x="424.99999999999994" y="783" as="targetPoint" />
            <mxPoint as="offset" />
          </mxGeometry>
        </mxCell>
        <mxCell id="uISs0ZUxdiLHD1mFaJ5K-19" value="&lt;font style=&quot;font-size: 12px;&quot;&gt;Getting All Vendor&lt;/font&gt;" style="html=1;verticalAlign=bottom;endArrow=open;dashed=1;endSize=8;edgeStyle=elbowEdgeStyle;elbow=vertical;curved=0;rounded=0;entryX=1.2;entryY=0.321;entryDx=0;entryDy=0;entryPerimeter=0;" edge="1" parent="1">
          <mxGeometry relative="1" as="geometry">
            <mxPoint x="428.49999999999994" y="863.9955172413793" as="sourcePoint" />
            <mxPoint x="132" y="864" as="targetPoint" />
          </mxGeometry>
        </mxCell>
        <mxCell id="uISs0ZUxdiLHD1mFaJ5K-20" value="&lt;font style=&quot;font-size: 12px;&quot;&gt;getAllVendor()&lt;/font&gt;" style="html=1;verticalAlign=bottom;endArrow=block;edgeStyle=elbowEdgeStyle;elbow=vertical;curved=0;rounded=0;fontSize=13;" edge="1" parent="1">
          <mxGeometry x="0.0006" width="80" relative="1" as="geometry">
            <mxPoint x="435" y="790" as="sourcePoint" />
            <mxPoint x="731" y="791" as="targetPoint" />
            <mxPoint as="offset" />
          </mxGeometry>
        </mxCell>
        <mxCell id="uISs0ZUxdiLHD1mFaJ5K-21" value="&lt;font style=&quot;font-size: 12px;&quot;&gt;Getting All&lt;/font&gt;" style="html=1;verticalAlign=bottom;endArrow=open;dashed=1;endSize=8;edgeStyle=elbowEdgeStyle;elbow=vertical;curved=0;rounded=0;exitX=0.478;exitY=0.218;exitDx=0;exitDy=0;exitPerimeter=0;" edge="1" parent="1">
          <mxGeometry relative="1" as="geometry">
            <mxPoint x="732" y="855" as="sourcePoint" />
            <mxPoint x="434" y="855.06" as="targetPoint" />
          </mxGeometry>
        </mxCell>
        <mxCell id="uISs0ZUxdiLHD1mFaJ5K-22" value="" style="html=1;points=[];perimeter=orthogonalPerimeter;rounded=0;shadow=0;comic=0;labelBackgroundColor=none;strokeWidth=1;fontFamily=Verdana;fontSize=12;align=center;" vertex="1" parent="1">
          <mxGeometry x="423.99999999999994" y="940" width="10" height="82" as="geometry" />
        </mxCell>
        <mxCell id="uISs0ZUxdiLHD1mFaJ5K-23" value="" style="html=1;points=[];perimeter=orthogonalPerimeter;rounded=0;shadow=0;comic=0;labelBackgroundColor=none;strokeWidth=1;fontFamily=Verdana;fontSize=12;align=center;" vertex="1" parent="1">
          <mxGeometry x="728.8199999999999" y="948" width="10" height="65" as="geometry" />
        </mxCell>
        <mxCell id="uISs0ZUxdiLHD1mFaJ5K-24" value="&lt;font style=&quot;font-size: 12px;&quot;&gt;deleteVendor()&lt;/font&gt;" style="html=1;verticalAlign=bottom;endArrow=block;edgeStyle=elbowEdgeStyle;elbow=vertical;curved=0;rounded=0;fontSize=13;exitX=1.2;exitY=0.228;exitDx=0;exitDy=0;exitPerimeter=0;" edge="1" parent="1">
          <mxGeometry x="0.0006" width="80" relative="1" as="geometry">
            <mxPoint x="132" y="942" as="sourcePoint" />
            <mxPoint x="424.99999999999994" y="942" as="targetPoint" />
            <mxPoint as="offset" />
          </mxGeometry>
        </mxCell>
        <mxCell id="uISs0ZUxdiLHD1mFaJ5K-25" value="&lt;font style=&quot;font-size: 12px;&quot;&gt;Vendor Deleted&lt;/font&gt;" style="html=1;verticalAlign=bottom;endArrow=open;dashed=1;endSize=8;edgeStyle=elbowEdgeStyle;elbow=vertical;curved=0;rounded=0;entryX=1.2;entryY=0.321;entryDx=0;entryDy=0;entryPerimeter=0;" edge="1" parent="1">
          <mxGeometry relative="1" as="geometry">
            <mxPoint x="428.49999999999994" y="1022.9955172413793" as="sourcePoint" />
            <mxPoint x="132" y="1023" as="targetPoint" />
          </mxGeometry>
        </mxCell>
        <mxCell id="uISs0ZUxdiLHD1mFaJ5K-26" value="&lt;font style=&quot;font-size: 12px;&quot;&gt;deleteVendor()&lt;/font&gt;" style="html=1;verticalAlign=bottom;endArrow=block;edgeStyle=elbowEdgeStyle;elbow=vertical;curved=0;rounded=0;fontSize=13;" edge="1" parent="1">
          <mxGeometry x="0.0006" width="80" relative="1" as="geometry">
            <mxPoint x="435" y="949" as="sourcePoint" />
            <mxPoint x="731" y="950" as="targetPoint" />
            <mxPoint as="offset" />
          </mxGeometry>
        </mxCell>
        <mxCell id="uISs0ZUxdiLHD1mFaJ5K-27" value="&lt;font style=&quot;font-size: 12px;&quot;&gt;Deleted&lt;/font&gt;" style="html=1;verticalAlign=bottom;endArrow=open;dashed=1;endSize=8;edgeStyle=elbowEdgeStyle;elbow=vertical;curved=0;rounded=0;exitX=0.478;exitY=0.218;exitDx=0;exitDy=0;exitPerimeter=0;" edge="1" parent="1">
          <mxGeometry relative="1" as="geometry">
            <mxPoint x="732" y="1014" as="sourcePoint" />
            <mxPoint x="434" y="1014.06" as="targetPoint" />
          </mxGeometry>
        </mxCell>
      </root>
    </mxGraphModel>
  </diagram>
</mxfile>
